<svg width="23" height="23" viewBox="0 0 23 23" fill="none" xmlns="http://www.w3.org/2000/svg">
<path d="M15.9869 3.2914C15.9869 3.1667 15.9373 3.0471 15.8491 2.95892C15.761 2.87074 15.6414 2.8212 15.5167 2.8212H13.1657C11.9818 2.76223 10.8227 3.17422 9.9417 3.96716C9.06067 4.76009 8.52928 5.86951 8.46366 7.053V9.59208H6.11266C5.98795 9.59208 5.86835 9.64162 5.78017 9.7298C5.69199 9.81798 5.64246 9.93758 5.64246 10.0623V12.5073C5.64246 12.632 5.69199 12.7516 5.78017 12.8398C5.86835 12.928 5.98795 12.9775 6.11266 12.9775H8.46366V19.2782C8.46366 19.4029 8.51319 19.5225 8.60137 19.6107C8.68955 19.6989 8.80915 19.7484 8.93386 19.7484H11.7551C11.8798 19.7484 11.9994 19.6989 12.0875 19.6107C12.1757 19.5225 12.2253 19.4029 12.2253 19.2782V12.9775H14.6891C14.7937 12.979 14.8957 12.9456 14.9792 12.8826C15.0627 12.8196 15.1227 12.7306 15.1499 12.6296L15.827 10.1845C15.8457 10.1151 15.8482 10.0422 15.8343 9.97162C15.8205 9.90102 15.7906 9.83455 15.747 9.77732C15.7034 9.72008 15.6472 9.67362 15.5828 9.64151C15.5184 9.6094 15.4475 9.59249 15.3756 9.59208H12.2253V7.053C12.2486 6.82023 12.358 6.60454 12.5318 6.44804C12.7057 6.29154 12.9317 6.20547 13.1657 6.20664H15.5167C15.6414 6.20664 15.761 6.1571 15.8491 6.06893C15.9373 5.98075 15.9869 5.86115 15.9869 5.73644V3.2914Z" fill="white"/>
</svg>
