<?xml version="1.0" encoding="UTF-8"?>
<svg version="1.1" xmlns="http://www.w3.org/2000/svg" width="261" height="312">
<path d="M0 0 C3.62530941 2.5092207 4.80374069 6.08036297 5.7890625 10.23828125 C6.893569 18.91654665 3.33189656 27.03240654 -1.2109375 34.23828125 C-2.50644531 34.00044922 -2.50644531 34.00044922 -3.828125 33.7578125 C-19.0761666 31.4160232 -31.68594275 35.4540353 -44.2109375 44.23828125 C-50.18122288 49.41497041 -53.74262035 56.8333298 -56.2109375 64.23828125 C-55.58316406 64.07972656 -54.95539063 63.92117187 -54.30859375 63.7578125 C-31.23212442 59.8874841 -6.38955137 65.52206111 12.7890625 78.73828125 C14.80499625 80.21679777 16.80699237 81.71466778 18.7890625 83.23828125 C19.87574219 84.04845703 19.87574219 84.04845703 20.984375 84.875 C42.44933116 102.12517732 52.29311478 130.0454714 56.7890625 156.23828125 C57.07716797 157.83349609 57.07716797 157.83349609 57.37109375 159.4609375 C59.2925613 176.82597601 58.43920041 194.39920339 53.7890625 211.23828125 C53.51618408 212.24737549 53.51618408 212.24737549 53.23779297 213.27685547 C47.6851041 233.17026895 37.00294483 250.39374885 22.7890625 265.23828125 C22.05429688 266.0478125 21.31953125 266.85734375 20.5625 267.69140625 C7.73550916 281.33349015 -9.54468139 291.53500205 -27.2109375 297.55078125 C-27.88560059 297.78128174 -28.56026367 298.01178223 -29.25537109 298.24926758 C-41.2626931 302.08591834 -53.0270689 303.74392922 -65.56274414 303.62939453 C-67.64471146 303.61331004 -69.72473124 303.62935761 -71.80664062 303.6484375 C-84.39062712 303.66904457 -96.86735068 301.99076792 -108.7109375 297.55078125 C-109.40614502 297.29586914 -110.10135254 297.04095703 -110.81762695 296.77832031 C-142.94036725 284.63846993 -168.72596477 261.09542188 -183.3203125 229.8671875 C-198.05875277 196.48368651 -196.99340135 156.46583169 -184.19335938 122.67578125 C-180.08911392 112.49268318 -174.61307349 103.38461762 -167.2109375 95.23828125 C-166.40011719 94.33464844 -165.58929688 93.43101563 -164.75390625 92.5 C-147.98812035 74.75232327 -124.52704034 65.21768586 -100.2109375 64.23828125 C-93.54493835 64.13065993 -86.87721868 64.17520872 -80.2109375 64.23828125 C-79.98019531 63.078125 -79.74945313 61.91796875 -79.51171875 60.72265625 C-74.80535472 37.84388402 -64.9162754 18.80836824 -45.2109375 5.23828125 C-32.37468004 -2.31358878 -14.39474238 -5.36623788 0 0 Z M-137.453125 140.375 C-139.90772696 140.62555586 -139.90772696 140.62555586 -143.2109375 142.23828125 C-147.89585004 148.77122157 -146.93598747 159.51123724 -147.2109375 167.23828125 C-148.45230469 167.35945313 -149.69367188 167.480625 -150.97265625 167.60546875 C-152.61462276 167.77435673 -154.25654773 167.94364885 -155.8984375 168.11328125 C-156.71505859 168.19191406 -157.53167969 168.27054688 -158.37304688 168.3515625 C-162.63722122 168.80042296 -166.30031204 169.34270312 -170.2109375 171.23828125 C-170.24003513 174.48826237 -170.25776911 177.73820982 -170.2734375 180.98828125 C-170.28181641 181.90867188 -170.29019531 182.8290625 -170.29882812 183.77734375 C-170.30205078 184.66679687 -170.30527344 185.55625 -170.30859375 186.47265625 C-170.31383057 187.28959961 -170.31906738 188.10654297 -170.32446289 188.94824219 C-170.21392771 191.1779626 -169.83149317 193.0996188 -169.2109375 195.23828125 C-166.52400028 195.57679303 -163.83653461 195.90921725 -161.1484375 196.23828125 C-160.39626953 196.33367187 -159.64410156 196.4290625 -158.86914062 196.52734375 C-154.27672433 197.08400027 -149.836724 197.33657153 -145.2109375 197.23828125 C-145.16195312 198.00011719 -145.11296875 198.76195312 -145.0625 199.546875 C-144.70535651 204.47914976 -144.3211323 209.41792214 -143.5234375 214.30078125 C-143.41644531 214.99300781 -143.30945313 215.68523437 -143.19921875 216.3984375 C-141.57772704 219.41710388 -139.34470686 220.05036403 -136.2109375 221.23828125 C-132.7250378 221.67205022 -132.7250378 221.67205022 -129.1484375 221.55078125 C-127.96121094 221.54691406 -126.77398437 221.54304688 -125.55078125 221.5390625 C-122.29063478 221.24545867 -120.05250165 220.85315924 -117.2109375 219.23828125 C-116.20963771 217.53196313 -116.20963771 217.53196313 -115.9609375 215.42578125 C-115.82429688 214.636875 -115.68765625 213.84796875 -115.546875 213.03515625 C-114.91591984 207.78208768 -114.521094 202.51910378 -114.2109375 197.23828125 C-113.65108154 197.18293213 -113.09122559 197.12758301 -112.5144043 197.07055664 C-109.97537945 196.81752305 -107.4369185 196.55921145 -104.8984375 196.30078125 C-103.57682617 196.17026367 -103.57682617 196.17026367 -102.22851562 196.03710938 C-100.95717773 195.9065918 -100.95717773 195.9065918 -99.66015625 195.7734375 C-98.87987061 195.69488525 -98.09958496 195.61633301 -97.2956543 195.53540039 C-95.02211749 195.27490128 -95.02211749 195.27490128 -92.2109375 194.23828125 C-90.67030121 191.15700867 -91.06766544 187.92806783 -91.0859375 184.55078125 C-91.08207031 183.85533203 -91.07820313 183.15988281 -91.07421875 182.44335938 C-90.72894224 174.16358178 -90.72894224 174.16358178 -94.2109375 167.23828125 C-101.04771166 165.82008544 -108.26499819 166.11943438 -115.2109375 166.23828125 C-115.25992188 165.34367187 -115.30890625 164.4490625 -115.359375 163.52734375 C-115.80782096 156.27489004 -116.53207341 149.31232992 -118.2109375 142.23828125 C-124.88864141 140.29567648 -130.55430176 139.95434005 -137.453125 140.375 Z M0.03515625 157.6640625 C-5.10720394 163.6046398 -5.65579349 169.43393462 -5.52734375 177.00390625 C-4.96565718 182.74559124 -2.93816263 186.41235754 0.9765625 190.55078125 C8.09692583 194.82299925 14.63340914 196.21295022 22.7890625 194.23828125 C28.85608389 191.95284018 33.1491188 187.71381106 35.90234375 181.87890625 C37.87145583 176.01494253 37.73853832 169.51640107 35.1640625 163.86328125 C31.54782762 157.70182183 26.65569264 154.85478759 20.03515625 152.71875 C13.17952773 151.25224164 5.49495888 153.22569288 0.03515625 157.6640625 Z M-53.2109375 186.23828125 C-57.10746325 192.75728972 -56.97176982 198.83284668 -56.2109375 206.23828125 C-54.68363758 211.59204224 -52.02884341 215.34753771 -47.2109375 218.23828125 C-40.86903374 221.25823542 -35.04775622 222.04381792 -28.2109375 220.23828125 C-22.29275995 217.58987133 -17.8978208 213.87485938 -15.1328125 207.9140625 C-13.11338452 202.05258721 -13.25664359 195.52698079 -15.8359375 189.86328125 C-19.45803528 183.69183242 -24.40118056 180.69890099 -31.12109375 178.7421875 C-39.43912828 176.73653058 -47.41150348 180.30076546 -53.2109375 186.23828125 Z " fill="#FFFFFF" transform="translate(197.2109375,1.76171875)"/>
</svg>
