<svg width="161" height="161" viewBox="0 0 161 161" fill="none" xmlns="http://www.w3.org/2000/svg">
<path d="M54.1996 134.157C64.1184 134.489 74.0032 132.829 83.2696 129.276C92.5361 125.722 100.996 120.347 108.15 113.469C115.304 106.59 121.006 98.347 124.92 89.2269C128.834 80.1069 130.88 70.2948 130.937 60.3706C135.483 54.7455 138.858 48.2685 140.865 41.3204C141.015 40.7714 141.003 40.1908 140.83 39.6486C140.658 39.1063 140.332 38.6255 139.892 38.264C139.453 37.9026 138.918 37.6758 138.353 37.6111C137.788 37.5464 137.216 37.6465 136.706 37.8994C134.328 39.0441 131.651 39.4138 129.051 38.9566C126.452 38.4993 124.062 37.238 122.217 35.3504C119.862 32.7718 117.014 30.692 113.841 29.2344C110.667 27.7767 107.234 26.9709 103.743 26.8645C100.253 26.7582 96.7767 27.3535 93.5205 28.6153C90.2644 29.8771 87.2947 31.7796 84.7873 34.2101C81.3542 37.5349 78.8396 41.6912 77.4879 46.2753C76.1362 50.8593 75.9934 55.7151 77.0733 60.3706C54.6021 61.7122 39.174 51.0467 26.8316 36.4236C26.4608 36.0037 25.9758 35.7009 25.4357 35.5521C24.8957 35.4033 24.324 35.415 23.7905 35.5857C23.2569 35.7564 22.7847 36.0788 22.4313 36.5135C22.078 36.9482 21.8589 37.4764 21.8007 38.0335C19.4494 51.0764 21.1456 64.5264 26.6614 76.5772C32.1771 88.628 41.2484 98.7024 52.6568 105.447C45.0074 114.22 34.2653 119.699 22.6728 120.741C22.0517 120.844 21.4784 121.139 21.033 121.584C20.5877 122.029 20.2926 122.602 20.1891 123.223C20.0856 123.844 20.1789 124.482 20.4558 125.047C20.7328 125.612 21.1796 126.077 21.7337 126.376C31.819 131.416 42.9253 134.078 54.1996 134.157Z" fill="white"/>
</svg>
