<svg width="24" height="17" viewBox="0 0 24 17" fill="none" xmlns="http://www.w3.org/2000/svg">
<path d="M9.62402 11.5725L15.7249 8.41631L9.62402 5.23364V11.5725Z" fill="#FB3030"/>
<path opacity="0.12" d="M9.62402 5.23364L14.9755 8.80422L15.7249 8.41631L9.62402 5.23364Z" fill="#420000"/>
<path d="M22.9984 4.13161C22.9984 4.13161 22.7781 2.57995 22.0995 1.89228C21.2447 0.993027 20.2841 0.993027 19.8346 0.940129C16.6884 0.710907 11.956 0.710907 11.956 0.710907H11.9471C11.9471 0.710907 7.21466 0.710907 4.05087 0.940129C3.61023 0.993027 2.64963 0.993027 1.78597 1.89228C1.1162 2.57995 0.895881 4.13161 0.895881 4.13161C0.895881 4.13161 0.666748 5.96539 0.666748 7.79036V9.50071C0.666748 11.3257 0.895881 13.1506 0.895881 13.1506C0.895881 13.1506 1.1162 14.7023 1.79479 15.39C2.64963 16.2892 3.77767 16.2628 4.28 16.3509C6.08662 16.5273 11.9471 16.5802 11.9471 16.5802C11.9471 16.5802 16.6884 16.5713 19.8434 16.3421C20.2841 16.2892 21.2447 16.2892 22.1083 15.39C22.7869 14.7023 23.0072 13.1506 23.0072 13.1506C23.0072 13.1506 23.2363 11.3257 23.2363 9.50071V7.79036C23.2275 5.96539 22.9984 4.13161 22.9984 4.13161ZM9.62056 11.5725V5.23364L15.719 8.41631L9.62056 11.5725Z" fill="url(#paint0_linear_279_19)"/>
<defs>
<linearGradient id="paint0_linear_279_19" x1="2888.45" y1="0.710936" x2="2888.45" y2="2858.04" gradientUnits="userSpaceOnUse">
<stop stop-color="white"/>
<stop offset="1" stop-color="white"/>
</linearGradient>
</defs>
</svg>
